<svg width="1155" height="505" viewBox="0 0 1155 505" fill="none" xmlns="http://www.w3.org/2000/svg">
<g filter="url(#filter0_df_16_120)">
<mask id="path-1-inside-1_16_120" fill="white">
<path d="M554.877 204.805C489.922 204.805 426.723 188.32 374.785 157.828C322.848 127.336 284.981 84.4865 266.879 35.7247C248.778 -13.0371 251.421 -65.0748 274.411 -112.561C297.402 -160.048 339.496 -200.416 394.362 -227.593C449.229 -254.77 513.901 -267.288 578.652 -263.262C643.403 -259.237 704.731 -238.886 753.412 -205.272C802.093 -171.657 835.495 -126.596 848.594 -76.8661C861.693 -27.136 853.78 24.574 826.046 70.4863L554.877 -29.5973L554.877 204.805Z"/>
</mask>
<path d="M554.877 204.805C489.922 204.805 426.723 188.32 374.785 157.828C322.848 127.336 284.981 84.4865 266.879 35.7247C248.778 -13.0371 251.421 -65.0748 274.411 -112.561C297.402 -160.048 339.496 -200.416 394.362 -227.593C449.229 -254.77 513.901 -267.288 578.652 -263.262C643.403 -259.237 704.731 -238.886 753.412 -205.272C802.093 -171.657 835.495 -126.596 848.594 -76.8661C861.693 -27.136 853.78 24.574 826.046 70.4863L554.877 -29.5973L554.877 204.805Z" fill="#A8DAEA"/>
<path d="M554.877 204.805C489.922 204.805 426.723 188.32 374.785 157.828C322.848 127.336 284.981 84.4865 266.879 35.7247C248.778 -13.0371 251.421 -65.0748 274.411 -112.561C297.402 -160.048 339.496 -200.416 394.362 -227.593C449.229 -254.77 513.901 -267.288 578.652 -263.262C643.403 -259.237 704.731 -238.886 753.412 -205.272C802.093 -171.657 835.495 -126.596 848.594 -76.8661C861.693 -27.136 853.78 24.574 826.046 70.4863L554.877 -29.5973L554.877 204.805Z" stroke="black" stroke-width="2" mask="url(#path-1-inside-1_16_120)"/>
</g>
<defs>
<filter id="filter0_df_16_120" x="-45" y="-564" width="1199.75" height="1068.81" filterUnits="userSpaceOnUse" color-interpolation-filters="sRGB">
<feFlood flood-opacity="0" result="BackgroundImageFix"/>
<feColorMatrix in="SourceAlpha" type="matrix" values="0 0 0 0 0 0 0 0 0 0 0 0 0 0 0 0 0 0 127 0" result="hardAlpha"/>
<feOffset dy="4"/>
<feGaussianBlur stdDeviation="2"/>
<feComposite in2="hardAlpha" operator="out"/>
<feColorMatrix type="matrix" values="0 0 0 0 0 0 0 0 0 0 0 0 0 0 0 0 0 0 0.25 0"/>
<feBlend mode="normal" in2="BackgroundImageFix" result="effect1_dropShadow_16_120"/>
<feBlend mode="normal" in="SourceGraphic" in2="effect1_dropShadow_16_120" result="shape"/>
<feGaussianBlur stdDeviation="150" result="effect2_foregroundBlur_16_120"/>
</filter>
</defs>
</svg>
